<?xml version="1.0" encoding="UTF-8" standalone="no"?>
<!DOCTYPE svg PUBLIC "-//W3C//DTD SVG 1.1//EN"
 "http://www.w3.org/Graphics/SVG/1.1/DTD/svg11.dtd">
<!-- Generated by graphviz version 14.0.0 (20250921.2048)
 -->
<!-- Title: G Pages: 1 -->
<svg width="1193pt" height="570pt"
 viewBox="0.00 0.00 1193.00 570.00" xmlns="http://www.w3.org/2000/svg" xmlns:xlink="http://www.w3.org/1999/xlink">
<g id="graph0" class="graph" transform="scale(1 1) rotate(0) translate(4 566.17)">
<title>G</title><style>.edge>path:hover{stroke-width:8}</style>
<polygon fill="white" stroke="none" points="-4,4 -4,-566.17 1188.96,-566.17 1188.96,4 -4,4"/>
<!-- fastapi -->
<g id="node1" class="node">
<title>fastapi</title><style>.edge>path:hover{stroke-width:8}</style>
<ellipse fill="#c24747" stroke="black" cx="166.38" cy="-245.09" rx="27" ry="18"/>
<text xml:space="preserve" text-anchor="middle" x="166.38" y="-241.21" font-family="Helvetica,sans-Serif" font-size="10.00" fill="#ffffff">fastapi</text>
</g>
<!-- src_entrypoints_fastapi_app -->
<g id="node23" class="node">
<title>src_entrypoints_fastapi_app</title><style>.edge>path:hover{stroke-width:8}</style>
<ellipse fill="#a44697" stroke="black" cx="47.38" cy="-29.52" rx="47.38" ry="29.52"/>
<text xml:space="preserve" text-anchor="middle" x="47.38" y="-36.9" font-family="Helvetica,sans-Serif" font-size="10.00" fill="#ffffff">src.</text>
<text xml:space="preserve" text-anchor="middle" x="47.38" y="-25.65" font-family="Helvetica,sans-Serif" font-size="10.00" fill="#ffffff">entrypoints.</text>
<text xml:space="preserve" text-anchor="middle" x="47.38" y="-14.4" font-family="Helvetica,sans-Serif" font-size="10.00" fill="#ffffff">fastapi_app</text>
</g>
<!-- fastapi&#45;&gt;src_entrypoints_fastapi_app -->
<g id="edge1" class="edge">
<title>fastapi&#45;&gt;src_entrypoints_fastapi_app</title><style>.edge>path:hover{stroke-width:8}</style>
<path fill="none" stroke="black" d="M166.38,-95.04C165.6,-93.02 126.34,-71.98 93.12,-54.46"/>
<polygon fill="#c24747" stroke="black" points="94.88,-51.43 84.4,-49.87 91.62,-57.62 94.88,-51.43"/>
<path fill="none" stroke="black" d="M170.22,-226.94C175.75,-198.6 183.52,-140.67 166.38,-96.04"/>
</g>
<!-- src_service_layer_dependencies -->
<g id="node25" class="node">
<title>src_service_layer_dependencies</title><style>.edge>path:hover{stroke-width:8}</style>
<ellipse fill="#9d4390" stroke="black" cx="166.38" cy="-29.52" rx="53.74" ry="29.52"/>
<text xml:space="preserve" text-anchor="middle" x="166.38" y="-36.9" font-family="Helvetica,sans-Serif" font-size="10.00" fill="#ffffff">src.</text>
<text xml:space="preserve" text-anchor="middle" x="166.38" y="-25.65" font-family="Helvetica,sans-Serif" font-size="10.00" fill="#ffffff">service_layer.</text>
<text xml:space="preserve" text-anchor="middle" x="166.38" y="-14.4" font-family="Helvetica,sans-Serif" font-size="10.00" fill="#ffffff">dependencies</text>
</g>
<!-- fastapi&#45;&gt;src_service_layer_dependencies -->
<g id="edge2" class="edge">
<title>fastapi&#45;&gt;src_service_layer_dependencies</title><style>.edge>path:hover{stroke-width:8}</style>
<path fill="none" stroke="black" d="M166.38,-95.04C163.45,-87.44 162.19,-78.95 161.88,-70.69"/>
<polygon fill="#c24747" stroke="black" points="165.38,-70.83 161.99,-60.79 158.38,-70.75 165.38,-70.83"/>
</g>
<!-- hvac -->
<g id="node2" class="node">
<title>hvac</title><style>.edge>path:hover{stroke-width:8}</style>
<ellipse fill="#c0ad40" stroke="black" cx="534.38" cy="-544.17" rx="27" ry="18"/>
<text xml:space="preserve" text-anchor="middle" x="534.38" y="-540.3" font-family="Helvetica,sans-Serif" font-size="10.00" fill="#000000">hvac</text>
</g>
<!-- src_adapters_vault -->
<g id="node15" class="node">
<title>src_adapters_vault</title><style>.edge>path:hover{stroke-width:8}</style>
<ellipse fill="#a83898" stroke="black" cx="498.38" cy="-328.61" rx="39.95" ry="29.52"/>
<text xml:space="preserve" text-anchor="middle" x="498.38" y="-335.98" font-family="Helvetica,sans-Serif" font-size="10.00" fill="#ffffff">src.</text>
<text xml:space="preserve" text-anchor="middle" x="498.38" y="-324.73" font-family="Helvetica,sans-Serif" font-size="10.00" fill="#ffffff">adapters.</text>
<text xml:space="preserve" text-anchor="middle" x="498.38" y="-313.48" font-family="Helvetica,sans-Serif" font-size="10.00" fill="#ffffff">vault</text>
</g>
<!-- hvac&#45;&gt;src_adapters_vault -->
<g id="edge3" class="edge">
<title>hvac&#45;&gt;src_adapters_vault</title><style>.edge>path:hover{stroke-width:8}</style>
<path fill="none" stroke="black" d="M532.93,-526.07C530.41,-498.24 524.59,-441.5 515.38,-394.13 513.76,-385.84 511.69,-377.05 509.55,-368.7"/>
<polygon fill="#c0ad40" stroke="black" points="512.97,-367.92 507.02,-359.15 506.2,-369.72 512.97,-367.92"/>
</g>
<!-- passlib -->
<g id="node3" class="node">
<title>passlib</title><style>.edge>path:hover{stroke-width:8}</style>
<ellipse fill="#6ac247" stroke="black" cx="755.38" cy="-544.17" rx="27.66" ry="18"/>
<text xml:space="preserve" text-anchor="middle" x="755.38" y="-540.3" font-family="Helvetica,sans-Serif" font-size="10.00" fill="#000000">passlib</text>
</g>
<!-- src_domain_model -->
<g id="node21" class="node">
<title>src_domain_model</title><style>.edge>path:hover{stroke-width:8}</style>
<ellipse fill="#c431af" stroke="black" cx="742.38" cy="-328.61" rx="35.71" ry="29.52"/>
<text xml:space="preserve" text-anchor="middle" x="742.38" y="-335.98" font-family="Helvetica,sans-Serif" font-size="10.00" fill="#ffffff">src.</text>
<text xml:space="preserve" text-anchor="middle" x="742.38" y="-324.73" font-family="Helvetica,sans-Serif" font-size="10.00" fill="#ffffff">domain.</text>
<text xml:space="preserve" text-anchor="middle" x="742.38" y="-313.48" font-family="Helvetica,sans-Serif" font-size="10.00" fill="#ffffff">model</text>
</g>
<!-- passlib&#45;&gt;src_domain_model -->
<g id="edge4" class="edge">
<title>passlib&#45;&gt;src_domain_model</title><style>.edge>path:hover{stroke-width:8}</style>
<path fill="none" stroke="black" d="M752.53,-525.98C751.46,-515.36 751.33,-501.63 755.38,-490.17"/>
</g>
<!-- passlib_hash -->
<g id="node4" class="node">
<title>passlib_hash</title><style>.edge>path:hover{stroke-width:8}</style>
<ellipse fill="#6ab34c" stroke="black" cx="667.38" cy="-544.17" rx="41.86" ry="18"/>
<text xml:space="preserve" text-anchor="middle" x="667.38" y="-540.3" font-family="Helvetica,sans-Serif" font-size="10.00" fill="#000000">passlib.hash</text>
</g>
<!-- passlib_hash&#45;&gt;src_domain_model -->
<g id="edge5" class="edge">
<title>passlib_hash&#45;&gt;src_domain_model</title><style>.edge>path:hover{stroke-width:8}</style>
<path fill="none" stroke="black" d="M695.98,-530.8C719.89,-519.67 750.8,-503.12 755.38,-490.17"/>
<path fill="none" stroke="black" d="M755.38,-489.17C769.29,-449.79 762.39,-401.66 754.31,-368.62"/>
<polygon fill="#6ab34c" stroke="black" points="757.73,-367.86 751.82,-359.07 750.96,-369.63 757.73,-367.86"/>
</g>
<!-- pydantic -->
<g id="node5" class="node">
<title>pydantic</title><style>.edge>path:hover{stroke-width:8}</style>
<ellipse fill="#40c089" stroke="black" cx="1151.38" cy="-544.17" rx="31.21" ry="18"/>
<text xml:space="preserve" text-anchor="middle" x="1151.38" y="-540.3" font-family="Helvetica,sans-Serif" font-size="10.00" fill="#000000">pydantic</text>
</g>
<!-- src_entity_models -->
<g id="node22" class="node">
<title>src_entity_models</title><style>.edge>path:hover{stroke-width:8}</style>
<ellipse fill="#b34ca4" stroke="black" cx="1151.38" cy="-328.61" rx="33.59" ry="29.52"/>
<text xml:space="preserve" text-anchor="middle" x="1151.38" y="-335.98" font-family="Helvetica,sans-Serif" font-size="10.00" fill="#ffffff">src.</text>
<text xml:space="preserve" text-anchor="middle" x="1151.38" y="-324.73" font-family="Helvetica,sans-Serif" font-size="10.00" fill="#ffffff">entity.</text>
<text xml:space="preserve" text-anchor="middle" x="1151.38" y="-313.48" font-family="Helvetica,sans-Serif" font-size="10.00" fill="#ffffff">models</text>
</g>
<!-- pydantic&#45;&gt;src_entity_models -->
<g id="edge6" class="edge">
<title>pydantic&#45;&gt;src_entity_models</title><style>.edge>path:hover{stroke-width:8}</style>
<path fill="none" stroke="black" d="M1151.38,-525.7C1151.38,-491.81 1151.38,-416.39 1151.38,-369.59"/>
<polygon fill="#40c089" stroke="black" points="1154.88,-369.86 1151.38,-359.86 1147.88,-369.86 1154.88,-369.86"/>
</g>
<!-- pydantic_settings -->
<g id="node6" class="node">
<title>pydantic_settings</title><style>.edge>path:hover{stroke-width:8}</style>
<ellipse fill="#538cb6" stroke="black" cx="292.38" cy="-423.65" rx="54.73" ry="18"/>
<text xml:space="preserve" text-anchor="middle" x="292.38" y="-419.78" font-family="Helvetica,sans-Serif" font-size="10.00" fill="#000000">pydantic_settings</text>
</g>
<!-- src_config_settings -->
<g id="node19" class="node">
<title>src_config_settings</title><style>.edge>path:hover{stroke-width:8}</style>
<ellipse fill="#cc33b6" stroke="black" cx="317.38" cy="-161.57" rx="35.71" ry="29.52"/>
<text xml:space="preserve" text-anchor="middle" x="317.38" y="-168.94" font-family="Helvetica,sans-Serif" font-size="10.00" fill="#ffffff">src.</text>
<text xml:space="preserve" text-anchor="middle" x="317.38" y="-157.69" font-family="Helvetica,sans-Serif" font-size="10.00" fill="#ffffff">config.</text>
<text xml:space="preserve" text-anchor="middle" x="317.38" y="-146.44" font-family="Helvetica,sans-Serif" font-size="10.00" fill="#ffffff">settings</text>
</g>
<!-- pydantic_settings&#45;&gt;src_config_settings -->
<g id="edge7" class="edge">
<title>pydantic_settings&#45;&gt;src_config_settings</title><style>.edge>path:hover{stroke-width:8}</style>
<path fill="none" stroke="black" d="M294.06,-405.18C298.01,-364.05 307.99,-260.25 313.52,-202.64"/>
<polygon fill="#538cb6" stroke="black" points="316.98,-203.22 314.46,-192.93 310.02,-202.55 316.98,-203.22"/>
</g>
<!-- sqlalchemy -->
<g id="node7" class="node">
<title>sqlalchemy</title><style>.edge>path:hover{stroke-width:8}</style>
<ellipse fill="#4e0cf3" stroke="black" cx="847.38" cy="-423.65" rx="38.76" ry="18"/>
<text xml:space="preserve" text-anchor="middle" x="847.38" y="-419.78" font-family="Helvetica,sans-Serif" font-size="10.00" fill="#ffffff">sqlalchemy</text>
</g>
<!-- src_adapters_orm -->
<g id="node13" class="node">
<title>src_adapters_orm</title><style>.edge>path:hover{stroke-width:8}</style>
<ellipse fill="#a13591" stroke="black" cx="678.38" cy="-161.57" rx="39.95" ry="29.52"/>
<text xml:space="preserve" text-anchor="middle" x="678.38" y="-168.94" font-family="Helvetica,sans-Serif" font-size="10.00" fill="#ffffff">src.</text>
<text xml:space="preserve" text-anchor="middle" x="678.38" y="-157.69" font-family="Helvetica,sans-Serif" font-size="10.00" fill="#ffffff">adapters.</text>
<text xml:space="preserve" text-anchor="middle" x="678.38" y="-146.44" font-family="Helvetica,sans-Serif" font-size="10.00" fill="#ffffff">orm</text>
</g>
<!-- sqlalchemy&#45;&gt;src_adapters_orm -->
<g id="edge8" class="edge">
<title>sqlalchemy&#45;&gt;src_adapters_orm</title><style>.edge>path:hover{stroke-width:8}</style>
<path fill="none" stroke="black" d="M840.73,-405.63C835.91,-392.75 829.54,-374.54 825.38,-358.13 812.96,-309.17 822.6,-293.92 806.38,-246.09"/>
<path fill="none" stroke="black" d="M806.38,-244.09C791.74,-210.88 755.79,-189.8 725.7,-177.42"/>
<polygon fill="#4e0cf3" stroke="black" points="727.35,-174.3 716.76,-173.94 724.81,-180.83 727.35,-174.3"/>
</g>
<!-- src_adapters_repository -->
<g id="node14" class="node">
<title>src_adapters_repository</title><style>.edge>path:hover{stroke-width:8}</style>
<ellipse fill="#99338a" stroke="black" cx="944.38" cy="-161.57" rx="41.54" ry="29.52"/>
<text xml:space="preserve" text-anchor="middle" x="944.38" y="-168.94" font-family="Helvetica,sans-Serif" font-size="10.00" fill="#ffffff">src.</text>
<text xml:space="preserve" text-anchor="middle" x="944.38" y="-157.69" font-family="Helvetica,sans-Serif" font-size="10.00" fill="#ffffff">adapters.</text>
<text xml:space="preserve" text-anchor="middle" x="944.38" y="-146.44" font-family="Helvetica,sans-Serif" font-size="10.00" fill="#ffffff">repository</text>
</g>
<!-- sqlalchemy&#45;&gt;src_adapters_repository -->
<g id="edge9" class="edge">
<title>sqlalchemy&#45;&gt;src_adapters_repository</title><style>.edge>path:hover{stroke-width:8}</style>
<path fill="none" stroke="black" d="M869.96,-408.56C886.38,-397.06 907.7,-379.29 919.38,-358.13 943.77,-313.9 916.88,-291.79 938.38,-246.09"/>
</g>
<!-- src_service_layer_uow -->
<g id="node26" class="node">
<title>src_service_layer_uow</title><style>.edge>path:hover{stroke-width:8}</style>
<ellipse fill="#8f3d83" stroke="black" cx="766.38" cy="-29.52" rx="53.74" ry="29.52"/>
<text xml:space="preserve" text-anchor="middle" x="766.38" y="-36.9" font-family="Helvetica,sans-Serif" font-size="10.00" fill="#ffffff">src.</text>
<text xml:space="preserve" text-anchor="middle" x="766.38" y="-25.65" font-family="Helvetica,sans-Serif" font-size="10.00" fill="#ffffff">service_layer.</text>
<text xml:space="preserve" text-anchor="middle" x="766.38" y="-14.4" font-family="Helvetica,sans-Serif" font-size="10.00" fill="#ffffff">uow</text>
</g>
<!-- sqlalchemy&#45;&gt;src_service_layer_uow -->
<g id="edge10" class="edge">
<title>sqlalchemy&#45;&gt;src_service_layer_uow</title><style>.edge>path:hover{stroke-width:8}</style>
<path fill="none" stroke="black" d="M806.38,-244.09C780.95,-186.4 847.79,-175.6 893.38,-132.04 913.44,-112.88 956.26,-121.12 944.38,-96.04"/>
<path fill="none" stroke="black" d="M944.38,-95.04C920.72,-57.04 871.85,-41.21 831.3,-34.72"/>
<polygon fill="#4e0cf3" stroke="black" points="832,-31.28 821.61,-33.34 831.01,-38.21 832,-31.28"/>
</g>
<!-- sqlalchemy_ext -->
<g id="node8" class="node">
<title>sqlalchemy_ext</title><style>.edge>path:hover{stroke-width:8}</style>
<ellipse fill="#6440c0" stroke="black" cx="963.38" cy="-423.65" rx="47.63" ry="18"/>
<text xml:space="preserve" text-anchor="middle" x="963.38" y="-419.78" font-family="Helvetica,sans-Serif" font-size="10.00" fill="#ffffff">sqlalchemy.ext</text>
</g>
<!-- sqlalchemy_ext&#45;&gt;src_adapters_repository -->
<g id="edge11" class="edge">
<title>sqlalchemy_ext&#45;&gt;src_adapters_repository</title><style>.edge>path:hover{stroke-width:8}</style>
<path fill="none" stroke="black" d="M976.38,-244.09C976.65,-228.85 971.81,-213.05 965.81,-199.47"/>
<polygon fill="#6440c0" stroke="black" points="968.97,-197.96 961.48,-190.46 962.66,-200.99 968.97,-197.96"/>
<path fill="none" stroke="black" d="M965.26,-405.64C968.6,-374.18 975.32,-304.78 976.38,-246.09"/>
</g>
<!-- sqlalchemy_ext&#45;&gt;src_service_layer_uow -->
<g id="edge12" class="edge">
<title>sqlalchemy_ext&#45;&gt;src_service_layer_uow</title><style>.edge>path:hover{stroke-width:8}</style>
<path fill="none" stroke="black" d="M976.38,-244.09C978.11,-204.15 1026.02,-200.81 1014.38,-162.57"/>
<path fill="none" stroke="black" d="M1014.38,-160.57C1009.94,-145.99 1006,-142.96 995.38,-132.04 976.02,-112.16 959.04,-119.6 944.38,-96.04"/>
</g>
<!-- sqlalchemy_ext_asyncio -->
<g id="node9" class="node">
<title>sqlalchemy_ext_asyncio</title><style>.edge>path:hover{stroke-width:8}</style>
<ellipse fill="#6a47c2" stroke="black" cx="1076.38" cy="-423.65" rx="47.38" ry="29.52"/>
<text xml:space="preserve" text-anchor="middle" x="1076.38" y="-431.03" font-family="Helvetica,sans-Serif" font-size="10.00" fill="#ffffff">sqlalchemy.</text>
<text xml:space="preserve" text-anchor="middle" x="1076.38" y="-419.78" font-family="Helvetica,sans-Serif" font-size="10.00" fill="#ffffff">ext.</text>
<text xml:space="preserve" text-anchor="middle" x="1076.38" y="-408.53" font-family="Helvetica,sans-Serif" font-size="10.00" fill="#ffffff">asyncio</text>
</g>
<!-- sqlalchemy_ext_asyncio&#45;&gt;src_adapters_repository -->
<g id="edge13" class="edge">
<title>sqlalchemy_ext_asyncio&#45;&gt;src_adapters_repository</title><style>.edge>path:hover{stroke-width:8}</style>
<path fill="none" stroke="black" d="M1014.38,-244.09C1010.16,-223.1 995.66,-204.55 980.94,-190.47"/>
<polygon fill="#6a47c2" stroke="black" points="983.69,-188.24 973.93,-184.13 979,-193.43 983.69,-188.24"/>
<path fill="none" stroke="black" d="M1063.9,-394.9C1049.17,-360.68 1025.29,-300.39 1014.38,-246.09"/>
</g>
<!-- sqlalchemy_ext_asyncio&#45;&gt;src_service_layer_uow -->
<g id="edge14" class="edge">
<title>sqlalchemy_ext_asyncio&#45;&gt;src_service_layer_uow</title><style>.edge>path:hover{stroke-width:8}</style>
<path fill="none" stroke="black" d="M1014.38,-244.09C1002.34,-209.91 1024.93,-197.23 1014.38,-162.57"/>
</g>
<!-- sqlalchemy_orm -->
<g id="node10" class="node">
<title>sqlalchemy_orm</title><style>.edge>path:hover{stroke-width:8}</style>
<ellipse fill="#603db8" stroke="black" cx="678.38" cy="-423.65" rx="49.41" ry="18"/>
<text xml:space="preserve" text-anchor="middle" x="678.38" y="-419.78" font-family="Helvetica,sans-Serif" font-size="10.00" fill="#ffffff">sqlalchemy.orm</text>
</g>
<!-- sqlalchemy_orm&#45;&gt;src_adapters_orm -->
<g id="edge15" class="edge">
<title>sqlalchemy_orm&#45;&gt;src_adapters_orm</title><style>.edge>path:hover{stroke-width:8}</style>
<path fill="none" stroke="black" d="M678.38,-244.09C675.91,-230.74 675.29,-215.95 675.48,-202.68"/>
<polygon fill="#603db8" stroke="black" points="678.97,-203.09 675.78,-192.98 671.97,-202.87 678.97,-203.09"/>
<path fill="none" stroke="black" d="M680.44,-405.42C683.79,-373.61 689.03,-303.66 678.38,-246.09"/>
</g>
<!-- src_adapters -->
<g id="node11" class="node">
<title>src_adapters</title><style>.edge>path:hover{stroke-width:8}</style>
<ellipse fill="#e722cb" stroke="black" cx="361.38" cy="-328.61" rx="41.42" ry="18"/>
<text xml:space="preserve" text-anchor="middle" x="361.38" y="-324.73" font-family="Helvetica,sans-Serif" font-size="10.00" fill="#ffffff">src.adapters</text>
</g>
<!-- src_bootstrap -->
<g id="node16" class="node">
<title>src_bootstrap</title><style>.edge>path:hover{stroke-width:8}</style>
<ellipse fill="#883a7d" stroke="black" cx="473.38" cy="-29.52" rx="43.19" ry="18"/>
<text xml:space="preserve" text-anchor="middle" x="473.38" y="-25.65" font-family="Helvetica,sans-Serif" font-size="10.00" fill="#ffffff">src.bootstrap</text>
</g>
<!-- src_adapters&#45;&gt;src_bootstrap -->
<g id="edge16" class="edge">
<title>src_adapters&#45;&gt;src_bootstrap</title><style>.edge>path:hover{stroke-width:8}</style>
<path fill="none" stroke="black" d="M381.38,-244.09C391.73,-209.37 386.44,-198.44 381.38,-162.57"/>
<path fill="none" stroke="black" d="M381.38,-160.57C380.21,-152.33 338.97,-103.1 343.38,-96.04"/>
<path fill="none" stroke="black" d="M365.1,-310.3C368.79,-293.71 374.84,-268.01 381.38,-246.09"/>
</g>
<!-- src_config_loader -->
<g id="node18" class="node">
<title>src_config_loader</title><style>.edge>path:hover{stroke-width:8}</style>
<ellipse fill="#a13591" stroke="black" cx="441.38" cy="-161.57" rx="32" ry="29.52"/>
<text xml:space="preserve" text-anchor="middle" x="441.38" y="-168.94" font-family="Helvetica,sans-Serif" font-size="10.00" fill="#ffffff">src.</text>
<text xml:space="preserve" text-anchor="middle" x="441.38" y="-157.69" font-family="Helvetica,sans-Serif" font-size="10.00" fill="#ffffff">config.</text>
<text xml:space="preserve" text-anchor="middle" x="441.38" y="-146.44" font-family="Helvetica,sans-Serif" font-size="10.00" fill="#ffffff">loader</text>
</g>
<!-- src_adapters&#45;&gt;src_config_loader -->
<g id="edge17" class="edge">
<title>src_adapters&#45;&gt;src_config_loader</title><style>.edge>path:hover{stroke-width:8}</style>
<path fill="none" stroke="black" d="M381.38,-244.09C387.16,-224.7 399.87,-206.27 412.11,-191.85"/>
<polygon fill="#e722cb" stroke="black" points="414.58,-194.35 418.6,-184.55 409.34,-189.7 414.58,-194.35"/>
</g>
<!-- src_adapters&#45;&gt;src_service_layer_uow -->
<g id="edge18" class="edge">
<title>src_adapters&#45;&gt;src_service_layer_uow</title><style>.edge>path:hover{stroke-width:8}</style>
<path fill="none" stroke="black" d="M381.38,-160.57C371.96,-93.79 591.33,-54.22 703.02,-38.47"/>
<polygon fill="#e722cb" stroke="black" points="703.21,-41.97 712.64,-37.14 702.25,-35.04 703.21,-41.97"/>
</g>
<!-- src_adapters_interfaces -->
<g id="node12" class="node">
<title>src_adapters_interfaces</title><style>.edge>path:hover{stroke-width:8}</style>
<ellipse fill="#ce3bb9" stroke="black" cx="464.38" cy="-423.65" rx="41.54" ry="29.52"/>
<text xml:space="preserve" text-anchor="middle" x="464.38" y="-431.03" font-family="Helvetica,sans-Serif" font-size="10.00" fill="#ffffff">src.</text>
<text xml:space="preserve" text-anchor="middle" x="464.38" y="-419.78" font-family="Helvetica,sans-Serif" font-size="10.00" fill="#ffffff">adapters.</text>
<text xml:space="preserve" text-anchor="middle" x="464.38" y="-408.53" font-family="Helvetica,sans-Serif" font-size="10.00" fill="#ffffff">interfaces</text>
</g>
<!-- src_adapters_interfaces&#45;&gt;src_adapters_vault -->
<g id="edge19" class="edge">
<title>src_adapters_interfaces&#45;&gt;src_adapters_vault</title><style>.edge>path:hover{stroke-width:8}</style>
<path fill="none" stroke="black" d="M474.58,-394.74C477.64,-386.36 481.05,-377.03 484.31,-368.1"/>
<polygon fill="#ce3bb9" stroke="black" points="487.52,-369.52 487.66,-358.93 480.94,-367.12 487.52,-369.52"/>
</g>
<!-- src_adapters_interfaces&#45;&gt;src_config_loader -->
<g id="edge20" class="edge">
<title>src_adapters_interfaces&#45;&gt;src_config_loader</title><style>.edge>path:hover{stroke-width:8}</style>
<path fill="none" stroke="black" d="M430.38,-244.09C428.6,-230.28 429.77,-215.17 431.9,-201.76"/>
<polygon fill="#ce3bb9" stroke="black" points="435.34,-202.43 433.7,-191.96 428.45,-201.17 435.34,-202.43"/>
<path fill="none" stroke="black" d="M457.36,-394.15C454.7,-382.95 451.75,-369.97 449.38,-358.13 439.43,-308.61 436.81,-296.18 430.38,-246.09"/>
</g>
<!-- src_adapters_orm&#45;&gt;src_bootstrap -->
<g id="edge21" class="edge">
<title>src_adapters_orm&#45;&gt;src_bootstrap</title><style>.edge>path:hover{stroke-width:8}</style>
<path fill="none" stroke="black" d="M652.11,-139.11C637.45,-126.85 619.03,-110.99 603.38,-96.04"/>
</g>
<!-- src_adapters_repository&#45;&gt;src_service_layer_uow -->
<g id="edge22" class="edge">
<title>src_adapters_repository&#45;&gt;src_service_layer_uow</title><style>.edge>path:hover{stroke-width:8}</style>
<path fill="none" stroke="black" d="M949.55,-132.09C950.38,-120.41 949.6,-107.08 944.38,-96.04"/>
</g>
<!-- src_adapters_vault&#45;&gt;src_config_loader -->
<g id="edge23" class="edge">
<title>src_adapters_vault&#45;&gt;src_config_loader</title><style>.edge>path:hover{stroke-width:8}</style>
<path fill="none" stroke="black" d="M470.04,-307.37C452.84,-292.72 433.59,-271.13 430.38,-246.09"/>
</g>
<!-- src_config -->
<g id="node17" class="node">
<title>src_config</title><style>.edge>path:hover{stroke-width:8}</style>
<ellipse fill="#ce3bb9" stroke="black" cx="229.38" cy="-161.57" rx="34.76" ry="18"/>
<text xml:space="preserve" text-anchor="middle" x="229.38" y="-157.69" font-family="Helvetica,sans-Serif" font-size="10.00" fill="#ffffff">src.config</text>
</g>
<!-- src_config&#45;&gt;src_bootstrap -->
<g id="edge24" class="edge">
<title>src_config&#45;&gt;src_bootstrap</title><style>.edge>path:hover{stroke-width:8}</style>
<path fill="none" stroke="black" d="M343.38,-95.04C361.06,-66.71 395.29,-50.42 424.19,-41.3"/>
<polygon fill="#ce3bb9" stroke="black" points="424.89,-44.74 433.5,-38.57 422.92,-38.02 424.89,-44.74"/>
<path fill="none" stroke="black" d="M249.63,-146.43C256.71,-141.68 264.79,-136.46 272.38,-132.04 302.95,-114.24 324.64,-126.06 343.38,-96.04"/>
</g>
<!-- src_config&#45;&gt;src_service_layer_dependencies -->
<g id="edge25" class="edge">
<title>src_config&#45;&gt;src_service_layer_dependencies</title><style>.edge>path:hover{stroke-width:8}</style>
<path fill="none" stroke="black" d="M267.38,-95.04C256.39,-76.76 238,-62.77 219.91,-52.57"/>
<polygon fill="#ce3bb9" stroke="black" points="221.75,-49.59 211.27,-48 218.47,-55.78 221.75,-49.59"/>
<path fill="none" stroke="black" d="M247.86,-145.91C262.05,-132.81 277.62,-113.09 267.38,-96.04"/>
</g>
<!-- src_config_loader&#45;&gt;src_bootstrap -->
<g id="edge26" class="edge">
<title>src_config_loader&#45;&gt;src_bootstrap</title><style>.edge>path:hover{stroke-width:8}</style>
<path fill="none" stroke="black" d="M414.98,-144.07C385.57,-125.57 342.23,-97.87 343.38,-96.04"/>
</g>
<!-- src_config_settings&#45;&gt;src_bootstrap -->
<g id="edge27" class="edge">
<title>src_config_settings&#45;&gt;src_bootstrap</title><style>.edge>path:hover{stroke-width:8}</style>
<path fill="none" stroke="black" d="M326.24,-132.54C330.55,-120.81 336.34,-107.31 343.38,-96.04"/>
</g>
<!-- src_config_settings&#45;&gt;src_service_layer_dependencies -->
<g id="edge28" class="edge">
<title>src_config_settings&#45;&gt;src_service_layer_dependencies</title><style>.edge>path:hover{stroke-width:8}</style>
<path fill="none" stroke="black" d="M296.96,-137.03C287.29,-125.2 275.99,-110.38 267.38,-96.04"/>
</g>
<!-- src_domain -->
<g id="node20" class="node">
<title>src_domain</title><style>.edge>path:hover{stroke-width:8}</style>
<ellipse fill="#ce3bb9" stroke="black" cx="872.38" cy="-328.61" rx="37.87" ry="18"/>
<text xml:space="preserve" text-anchor="middle" x="872.38" y="-324.73" font-family="Helvetica,sans-Serif" font-size="10.00" fill="#ffffff">src.domain</text>
</g>
<!-- src_domain&#45;&gt;src_adapters_orm -->
<g id="edge29" class="edge">
<title>src_domain&#45;&gt;src_adapters_orm</title><style>.edge>path:hover{stroke-width:8}</style>
<path fill="none" stroke="black" d="M867.42,-310.52C860.27,-288.61 845.16,-250.64 820.38,-227.09 794.15,-202.17 756.63,-185.68 726.74,-175.62"/>
<polygon fill="#ce3bb9" stroke="black" points="728.14,-172.39 717.55,-172.66 726,-179.06 728.14,-172.39"/>
</g>
<!-- src_domain&#45;&gt;src_adapters_repository -->
<g id="edge30" class="edge">
<title>src_domain&#45;&gt;src_adapters_repository</title><style>.edge>path:hover{stroke-width:8}</style>
<path fill="none" stroke="black" d="M888.89,-312.07C904.14,-296.76 926.21,-271.96 938.38,-246.09"/>
</g>
<!-- src_domain_model&#45;&gt;src_adapters_orm -->
<g id="edge31" class="edge">
<title>src_domain_model&#45;&gt;src_adapters_orm</title><style>.edge>path:hover{stroke-width:8}</style>
<path fill="none" stroke="black" d="M717.34,-307.5C701.4,-292.6 682.93,-270.68 678.38,-246.09"/>
</g>
<!-- src_domain_model&#45;&gt;src_adapters_repository -->
<g id="edge32" class="edge">
<title>src_domain_model&#45;&gt;src_adapters_repository</title><style>.edge>path:hover{stroke-width:8}</style>
<path fill="none" stroke="black" d="M775.39,-316.58C829.3,-298.18 931.02,-261.72 938.38,-246.09"/>
<path fill="none" stroke="black" d="M938.38,-244.09C944.37,-231.35 946.62,-216.24 947.13,-202.51"/>
<polygon fill="#c431af" stroke="black" points="950.62,-202.91 947.18,-192.89 943.62,-202.87 950.62,-202.91"/>
</g>
<!-- src_exceptions -->
<g id="node24" class="node">
<title>src_exceptions</title><style>.edge>path:hover{stroke-width:8}</style>
<ellipse fill="#ce3bb9" stroke="black" cx="603.38" cy="-328.61" rx="47.19" ry="18"/>
<text xml:space="preserve" text-anchor="middle" x="603.38" y="-324.73" font-family="Helvetica,sans-Serif" font-size="10.00" fill="#ffffff">src.exceptions</text>
</g>
<!-- src_exceptions&#45;&gt;src_bootstrap -->
<g id="edge33" class="edge">
<title>src_exceptions&#45;&gt;src_bootstrap</title><style>.edge>path:hover{stroke-width:8}</style>
<path fill="none" stroke="black" d="M603.38,-244.09C578.66,-183.11 650.97,-141.47 603.38,-96.04"/>
<path fill="none" stroke="black" d="M603.38,-95.04C578.69,-72.49 544.66,-55.98 517.61,-45.31"/>
<polygon fill="#ce3bb9" stroke="black" points="518.88,-42.04 508.29,-41.76 516.39,-48.59 518.88,-42.04"/>
</g>
<!-- src_exceptions&#45;&gt;src_config_loader -->
<g id="edge34" class="edge">
<title>src_exceptions&#45;&gt;src_config_loader</title><style>.edge>path:hover{stroke-width:8}</style>
<path fill="none" stroke="black" d="M603.38,-244.09C584.41,-197.28 525.6,-177.12 484.33,-168.6"/>
<polygon fill="#ce3bb9" stroke="black" points="485.17,-165.19 474.69,-166.77 483.86,-172.07 485.17,-165.19"/>
<path fill="none" stroke="black" d="M607.02,-310.35C609.78,-293.34 611.83,-266.94 603.38,-246.09"/>
</g>
</g>
</svg>
